HIERARCHY
ROOT mixamorig:Hips
{
	OFFSET -0.000000 0.997919 0.000000
	CHANNELS 6 Xposition Yposition Zposition Xrotation Yrotation Zrotation
	JOINT mixamorig:Spine
	{
		OFFSET -0.000000 0.099235 -0.012273
		CHANNELS 6 Xposition Yposition Zposition Xrotation Yrotation Zrotation
		JOINT mixamorig:Spine1
		{
			OFFSET -0.000012 0.116454 -0.014223
			CHANNELS 6 Xposition Yposition Zposition Xrotation Yrotation Zrotation
			JOINT mixamorig:Spine2
			{
				OFFSET -0.000011 0.133602 -0.016265
				CHANNELS 6 Xposition Yposition Zposition Xrotation Yrotation Zrotation
				JOINT mixamorig:Neck
				{
					OFFSET -0.000013 0.150325 0.007929
					CHANNELS 6 Xposition Yposition Zposition Xrotation Yrotation Zrotation
					JOINT mixamorig:Head
					{
						OFFSET -0.000009 0.103218 0.031424
						CHANNELS 6 Xposition Yposition Zposition Xrotation Yrotation Zrotation
						End Site
						{
							OFFSET -0.000009 0.107896 -0.000000
						}
					}
				}
				JOINT mixamorig:LeftShoulder
				{
					OFFSET 0.061050 0.091110 0.007055
					CHANNELS 6 Xposition Yposition Zposition Xrotation Yrotation Zrotation
					JOINT mixamorig:LeftArm
					{
						OFFSET 0.126551 -0.002648 -0.026009
						CHANNELS 3 Xrotation Yrotation Zrotation
						JOINT mixamorig:LeftForeArm
						{
							OFFSET 0.274047 0.000025 -0.000000
							CHANNELS 6 Xposition Yposition Zposition Xrotation Yrotation Zrotation
							JOINT mixamorig:LeftHand
							{
								OFFSET 0.276144 0.000025 0.000000
								CHANNELS 3 Xrotation Yrotation Zrotation
								End Site
								{
									OFFSET 0.276144 0.000024 0.000000
								}
							}
						}
					}
				}
				JOINT mixamorig:RightShoulder
				{
					OFFSET -0.061065 0.091100 0.007056
					CHANNELS 6 Xposition Yposition Zposition Xrotation Yrotation Zrotation
					JOINT mixamorig:RightArm
					{
						OFFSET -0.126550 -0.002671 -0.026009
						CHANNELS 3 Xrotation Yrotation Zrotation
						JOINT mixamorig:RightForeArm
						{
							OFFSET -0.274047 -0.000023 0.000000
							CHANNELS 3 Xrotation Yrotation Zrotation
							JOINT mixamorig:RightHand
							{
								OFFSET -0.276145 -0.000024 0.000000
								CHANNELS 6 Xposition Yposition Zposition Xrotation Yrotation Zrotation
								End Site
								{
									OFFSET -0.276145 -0.000024 0.000000
								}
							}
						}
					}
				}
			}
		}
	}
	JOINT mixamorig:LeftUpLeg
	{
		OFFSET 0.091245 -0.066564 -0.000554
		CHANNELS 6 Xposition Yposition Zposition Xrotation Yrotation Zrotation
		JOINT mixamorig:LeftLeg
		{
			OFFSET 0.002447 -0.405954 -0.005156
			CHANNELS 3 Xrotation Yrotation Zrotation
			JOINT mixamorig:LeftFoot
			{
				OFFSET -0.002447 -0.420479 -0.020592
				CHANNELS 3 Xrotation Yrotation Zrotation
				JOINT mixamorig:LeftToeBase
				{
					OFFSET 0.003735 -0.072086 0.139666
					CHANNELS 3 Xrotation Yrotation Zrotation
					End Site
					{
						OFFSET -0.002233 -0.002755 0.157176
					}
				}
			}
		}
	}
	JOINT mixamorig:RightUpLeg
	{
		OFFSET -0.091244 -0.066564 -0.000554
		CHANNELS 6 Xposition Yposition Zposition Xrotation Yrotation Zrotation
		JOINT mixamorig:RightLeg
		{
			OFFSET -0.002447 -0.405955 -0.005143
			CHANNELS 3 Xrotation Yrotation Zrotation
			JOINT mixamorig:RightFoot
			{
				OFFSET 0.002447 -0.420478 -0.020605
				CHANNELS 3 Xrotation Yrotation Zrotation
				JOINT mixamorig:RightToeBase
				{
					OFFSET -0.003735 -0.072085 0.139666
					CHANNELS 6 Xposition Yposition Zposition Xrotation Yrotation Zrotation
					End Site
					{
						OFFSET 0.002229 -0.002751 0.157176
					}
				}
			}
		}
	}
}
MOTION
Frames: 4
Frame Time: 0.033333
0.022799 0.987936 0.036083 -4.773003 -27.125856 -5.110646 -0.000000 0.099235 -0.012273 1.832273 -2.891260 5.110152 -0.000012 0.116455 -0.014223 -1.874102 -8.620037 5.596748 -0.000011 0.133602 -0.016265 -2.004644 -8.602440 5.557085 -0.000013 0.150325 0.007929 10.339093 3.474633 -2.921071 -0.000009 0.103219 0.031424 8.579960 14.504340 8.415898 0.061050 0.091110 0.007055 1.215029 -41.134200 -5.316519 -59.296274 -74.525075 -90.004271 0.274047 0.000025 -0.000000 0.009978 -62.978374 0.006115 -1.830308 -16.140777 -15.541332 -0.061065 0.091100 0.007056 3.341883 14.668501 2.813365 2.071123 33.275220 62.288668 0.057007 94.990023 -0.062121 -0.276145 -0.000024 0.000000 -83.092912 -1.261834 33.856643 0.091245 -0.066564 -0.000554 -7.665642 12.643971 9.202597 21.420735 10.036818 3.969930 -5.671828 17.422523 -10.108559 -4.418175 -0.000001 0.000002 -0.091244 -0.066564 -0.000554 -2.265362 -11.941397 -1.916982 11.469992 -5.266451 0.216238 -4.671129 17.474569 3.588711 -0.003735 -0.072085 0.139666 -7.437697 -0.000005 0.000005 
0.022520 0.988061 0.035436 -4.786109 -26.957080 -5.275165 -0.000000 0.099235 -0.012273 1.849770 -2.833195 5.069897 -0.000012 0.116454 -0.014223 -1.838071 -8.498770 5.530994 -0.000011 0.133602 -0.016265 -1.965021 -8.482155 5.490877 -0.000013 0.150325 0.007929 10.064711 3.439773 -2.723238 -0.000009 0.103218 0.031424 8.369406 14.538958 8.171199 0.061050 0.091110 0.007055 1.343140 -39.251253 -4.669880 -62.912845 -74.769371 -93.213525 0.274047 0.000025 -0.000000 0.009811 -62.549944 0.005980 -2.522636 -16.410122 -14.604918 -0.061065 0.091100 0.007056 3.306710 15.220716 3.257235 1.410518 34.101024 62.165137 0.057900 94.913886 -0.062964 -0.276145 -0.000024 0.000000 -83.534825 -0.163635 33.420747 0.091245 -0.066564 -0.000554 -7.710595 12.722833 9.436403 21.286093 10.036554 3.986216 -5.588637 17.142757 -10.083703 -4.420931 -0.000004 -0.000002 -0.091245 -0.066564 -0.000554 -2.053508 -11.846585 -1.628627 11.177847 -5.245368 0.186164 -4.470701 17.167283 3.550774 -0.003735 -0.072085 0.139666 -7.426837 0.000012 0.000005 
0.022276 0.988158 0.034655 -4.790150 -26.656898 -5.397399 -0.000000 0.099235 -0.012273 1.860342 -2.753292 5.030930 -0.000012 0.116454 -0.014223 -1.812531 -8.335765 5.469904 -0.000011 0.133602 -0.016265 -1.935886 -8.320193 5.429039 -0.000013 0.150325 0.007929 9.763585 3.402661 -2.637058 -0.000009 0.103218 0.031424 8.013520 14.498922 7.852511 0.061050 0.091110 0.007055 1.415419 -37.116628 -4.019135 -67.391250 -74.923166 -97.246847 0.274047 0.000025 -0.000000 0.009468 -61.639671 0.005649 -3.069763 -16.550727 -13.964323 -0.061065 0.091100 0.007056 3.311292 15.966732 3.537540 0.485877 34.874485 62.330005 0.058461 94.861226 -0.063599 -0.276145 -0.000024 0.000000 -84.246094 0.958253 33.030084 0.091245 -0.066564 -0.000554 -7.779450 12.796818 9.643050 21.137094 10.035976 3.999245 -5.505823 16.740573 -10.026527 -4.428403 -0.000006 -0.000007 -0.091244 -0.066564 -0.000554 -1.860660 -11.770334 -1.374946 10.929693 -5.225658 0.156536 -4.309010 16.750380 3.512817 -0.003735 -0.072085 0.139666 -7.415935 -0.000007 0.000003 
0.022084 0.988250 0.033825 -4.784821 -26.196530 -5.457560 -0.000000 0.099235 -0.012273 1.855366 -2.642891 4.999474 -0.000012 0.116454 -0.014223 -1.812735 -8.116322 5.416605 -0.000011 0.133602 -0.016265 -1.934068 -8.101630 5.374550 -0.000013 0.150325 0.007929 9.497619 3.344608 -2.731325 -0.000009 0.103218 0.031424 7.543143 14.230498 7.475437 0.061050 0.091110 0.007055 1.400520 -35.072786 -3.573789 -71.619868 -74.926178 -100.972715 0.274047 0.000025 -0.000000 0.008991 -60.439210 0.005246 -3.635145 -16.265756 -14.005872 -0.061065 0.091100 0.007056 3.396810 16.719302 3.383458 -0.812871 35.574040 63.097083 0.059548 94.787842 -0.064691 -0.276145 -0.000024 0.000000 -85.087935 2.317706 32.529281 0.091245 -0.066564 -0.000554 -7.870185 12.863959 9.815013 20.983094 10.035575 3.986196 -5.417015 16.180121 -9.947386 -4.436140 0.000003 -0.000000 -0.091244 -0.066564 -0.000554 -1.673930 -11.740561 -1.184361 10.711935 -5.205288 0.137575 -4.187021 16.222813 3.466664 -0.003735 -0.072085 0.139666 -7.405155 -0.000010 0.000001 
